<svg width="44" height="58" viewBox="0 0 44 58" fill="none" xmlns="http://www.w3.org/2000/svg">
<path d="M31.1922 20.4117H26.2826V15.7561H21.5739V20.4117H16.6643V25.1012H21.5739V35.7905H26.2826V25.1012H31.1922V20.4117Z" stroke="#00203F" stroke-width="2" stroke-linecap="round" stroke-linejoin="round"/>
<path d="M7.88082 36.85V51.341H6.49708C2.90897 51.341 0 48.444 0 44.8705V7.47053C0 3.89708 2.90897 1 6.49708 1H7.88082V29.906" stroke="#00203F" stroke-width="2" stroke-linecap="round" stroke-linejoin="round"/>
<path d="M7.88086 1H39.6928C41.1812 1 42.3867 2.20054 42.3867 3.6829V48.6581C42.3867 50.1405 41.1812 51.341 39.6928 51.341H7.88086" stroke="#00203F" stroke-width="2" stroke-linecap="round" stroke-linejoin="round"/>
<path d="M10.5493 51.3411H16.6474V57L13.5969 54.8441L10.5493 57V51.3411Z" stroke="#00203F" stroke-width="2" stroke-linecap="round" stroke-linejoin="round"/>
</svg>
