<svg width="24" height="24" viewBox="0 0 24 24" fill="none" xmlns="http://www.w3.org/2000/svg">
<path d="M12 6.5C11.578 6.5 11.156 6.633 10.8 6.9L4 12L2 13.5M4 12V20.25C4 20.7804 4.21071 21.2891 4.58579 21.6642C4.96086 22.0393 5.46957 22.25 6 22.25H9M12 6.5C12.422 6.5 12.844 6.633 13.2 6.9L20 12L22 13.5M20 12V20.25C20 20.7804 19.7893 21.2891 19.4142 21.6642C19.0391 22.0393 18.5304 22.25 18 22.25H15M12 6.5V1.75M10 3.75H14M9 22.25V15C9 14.7348 9.10536 14.4804 9.29289 14.2929C9.48043 14.1054 9.73478 14 10 14H14C14.2652 14 14.5196 14.1054 14.7071 14.2929C14.8946 14.4804 15 14.7348 15 15V22.25M9 22.25H15" stroke="#1E358A" stroke-width="1.5" stroke-linecap="round"/>
</svg>
